# xmcd
#
# Track frame offsets:
#	150
#	16647
#	41039
#	60518
#	81768
#	95214
#	113200
#	132197
#	151184
#	170853
#	191065
#	214006
#	235483
#	255863
#	272338
#	290651
#
# Disc length: 4437 seconds
#
# Revision: 4
# Processed by: cddbd v1.5.2PL0 Copyright (c) Steve Scherf et al.
# Submitted via: dBpowerAMP V4.0
#
DISCID=dc115310
DTITLE=The Game, - Doctor's Advocate
DYEAR=2006
DGENRE=
TTITLE0=Lookin' At You
TTITLE1=Da S***
TTITLE2=It's Okay/One Blood
TTITLE3=Compton
TTITLE4=Remedy
TTITLE5=Let's Ride
TTITLE6=Too Much
TTITLE7=Wouldn't Get Far
TTITLE8=Scream On 'Em
TTITLE9=One Night
TTITLE10=Doctor's Advocate
TTITLE11=Ol' English
TTITLE12=California Vacation
TTITLE13=Bang!
TTITLE14=Around The World
TTITLE15=Why You Hate The Game?
EXTD=
EXTT0=
EXTT1=
EXTT2=
EXTT3=
EXTT4=
EXTT5=
EXTT6=
EXTT7=
EXTT8=
EXTT9=
EXTT10=
EXTT11=
EXTT12=
EXTT13=
EXTT14=
EXTT15=
PLAYORDER=
